<?xml version="1.0" encoding="utf-8"?>
<!-- Generator: Adobe Illustrator 18.0.0, SVG Export Plug-In . SVG Version: 6.00 Build 0)  -->
<!DOCTYPE svg PUBLIC "-//W3C//DTD SVG 1.1//EN" "http://www.w3.org/Graphics/SVG/1.1/DTD/svg11.dtd">
<svg version="1.1" id="layouts" xmlns="http://www.w3.org/2000/svg" xmlns:xlink="http://www.w3.org/1999/xlink" x="0px" y="0px"
	 viewBox="0 0 156.8 62.4" enable-background="new 0 0 156.8 62.4" xml:space="preserve">
<g>
	<g>
		<g>
			<path fill="#2166A6" d="M6.6,27.1c3.1,0,5.7-2.6,5.7-5.7c0-3.1-2.6-5.7-5.7-5.7c-3.1,0-5.7,2.6-5.7,5.7
				C0.8,24.5,3.4,27.1,6.6,27.1z"/>
			<polygon fill="#2166A6" points="1.9,61 1.9,61.8 10.9,61.8 10.9,56.5 10.9,32.8 1.9,32.8 			"/>
		</g>
		<path fill="#2166A6" d="M46.4,41.1c-1.8-2.9-5.1-4.6-8.9-5.7l-2.8-0.8c-1.9-0.6-4.9-1.6-4.9-4c0-2.4,2.7-3.5,4.7-3.5
			c2.7,0,5.3,1.1,7.3,2.8l4.4-8.5c-3.8-2.1-9-3.5-13.2-3.5c-8.5,0-14.6,5.6-14.6,14.2c0,8.2,4.5,10,11.4,11.9c1.5,0.4,3.8,1,5.3,2.2
			c0.8,0.7,1.4,1.5,1.4,2.6c0,3-2.7,4.3-5.3,4.3c-2.5,0-4.7-0.8-6.7-2.1c-1.1-0.7-2.1-1.4-3-2.3l-2.5,4.7l-2.2,4.1
			c4.3,3,9.5,4.8,14.8,4.8c4.3,0,8.7-1.2,12-4c3.4-2.9,4.4-7.2,4.4-11.4C47.9,44.6,47.3,42.7,46.4,41.1z"/>
		<path fill="#2166A6" d="M81.9,47.4c0-9.3-5-15.3-14.1-15.9c-0.5,0-0.8-0.1-1.3-0.1c-6,0-10.9,2.4-13.5,6.7
			c-1.5,2.3-2.3,5.2-2.3,8.6c0,9.9,7.1,15.6,16.6,15.6c6.6,0,13-2.6,14.6-9.6h-9.8c-1.1,2-2.7,2.5-4.9,2.5c-4.2,0-6.4-2.5-6.4-6.5
			h21V47.4z M61.1,41.8c0.6-2,3.1-4.5,6-4.5c2.7,0,5.3,2.5,5.8,4.5H61.1z"/>
		<path fill="#2166A6" d="M100.8,31.5c-9.3,0-15.9,5.8-15.9,15.3c0,9.9,7.1,15.3,16.6,15.3c6.6,0,13-3.1,14.6-9.9h-9.8
			c-1.1,1.9-2.7,2.6-4.9,2.6c-4.2,0-6.4-2.2-6.4-6.4h21.4v-1.1C116.5,37.6,110.8,31.5,100.8,31.5z M95.2,42.6c0.6-3,3.1-4.5,6-4.5
			c2.7,0,5.3,1.8,5.8,4.5H95.2z"/>
		<g>
			<path fill="#2166A6" d="M141.5,45.7l14.4-13.3h-13.9l-10.6,10.4V16.3c-3.7,1.1-7.1,2.7-10.2,4.8v40.1h10.2V49.4l11.1,11.7h14.3
				L141.5,45.7z"/>
			<g>
				<path fill="#2166A6" d="M134.5,11.4c0-0.6-3.5-1.1-7.8-1.1c-4.3,0-7.8,0.5-7.8,1.1c0,0.3,0.8,0.6,2,0.8l-0.2,4.4
					c3.4-2.2,7.2-3.7,11.2-4.4C133.6,12.1,134.5,11.8,134.5,11.4z"/>
				<path fill="#2166A6" d="M130.9,3L130.9,3l-4.6-3l-4.4,2.9v0c3-0.1,2.9-0.2,4.5-0.2C128.1,2.8,128.9,2.9,130.9,3z"/>
				<path fill="#2166A6" d="M122.9,8.2c-0.1,0-0.2,0-0.3,0l0,1.7c1.2-0.1,2.6-0.2,4.1-0.2c1.5,0,2.9,0.1,4.1,0.2L130.8,5l0-1.2
					c-1.2-0.1-2.6-0.2-4-0.2c-1.4,0-2.8,0.1-4,0.2l0,1.2l0,1.1c0.1,0,0.1,0,0.2,0c0.6,0,1.1,0.5,1.1,1.1
					C124,7.7,123.5,8.2,122.9,8.2z"/>
			</g>
		</g>
	</g>
	<linearGradient id="SVGID_1_" gradientUnits="userSpaceOnUse" x1="13.5239" y1="32.2829" x2="184.5144" y2="8.2567">
		<stop  offset="0" style="stop-color:#2166A6;stop-opacity:0"/>
		<stop  offset="1" style="stop-color:#2166A6"/>
	</linearGradient>
	<path fill="url(#SVGID_1_)" d="M66.6,31.5c0.5,0,1,0,1.4,0.1l55.6-24.6L0,6.8l0.2,54.8L1.5,61V32.4h10.2v24.1l7.2-3.2l2.5-4.7
		c0.9,0.8,1.9,1.6,3,2.3l10.7-4.7c-1.5-1.2-3.8-1.8-5.3-2.2c-6.9-2-11.4-3.8-11.4-11.9c0-8.6,6.1-14.2,14.6-14.2
		c4.3,0,9.5,1.3,13.2,3.5l-4.4,8.5c-2-1.7-4.6-2.8-7.3-2.8c-2,0-4.7,1.2-4.7,3.5c0,2.5,3,3.4,4.9,4l2.8,0.8c3.8,1.1,7.1,2.8,8.9,5.7
		l6.7-2.9C55.7,33.9,60.6,31.5,66.6,31.5z M6.6,27.1c-3.1,0-5.7-2.6-5.7-5.7c0-3.1,2.6-5.7,5.7-5.7c3.1,0,5.7,2.6,5.7,5.7
		C12.3,24.5,9.7,27.1,6.6,27.1z"/>
</g>
</svg>
